<svg xmlns="http://www.w3.org/2000/svg" version="1.1"
    width="900" height="900"
    viewBox="430 330 150 190"
    >
<g>
<path data-code="DE" d="M430.54,420.84l0.92,-0.06l2.69,-2.09l-0.09,-0.78l-0.62,-0.26l-0.01,-0.35l1.2,-2.32l0.46,-1.8l-0.14,-0.96l-1.33,-1.91l-0.18,-0.88l-1.75,-2.06l0.0,-0.39l2.55,-1.2l2.73,0.97l0.9,-0.57l1.27,0.05l3.04,-1.03l1.09,-1.59l-1.19,-1.26l0.08,-0.38l3.33,-2.18l0.69,-1.23l0.26,-2.25l-0.57,-1.0l-0.78,-0.57l-1.72,0.03l-0.99,-0.34l-0.56,-0.77l0.32,-0.81l-0.14,-0.63l0.26,-0.15l3.48,0.01l0.58,-0.47l1.2,-4.4l0.87,-1.53l0.25,-5.88l-0.69,-1.09l-1.23,-0.85l0.66,-2.97l1.24,-1.67l0.91,-0.42l4.57,-0.29l4.95,0.12l1.86,2.37l-0.66,1.17l0.16,0.55l1.25,0.65l0.93,-0.22l1.1,-2.84l1.71,1.34l0.03,2.08l0.36,0.39l0.43,-0.32l0.59,-3.01l-0.42,-2.2l0.28,-1.9l0.99,-1.44l3.67,0.69l4.06,-0.37l1.41,0.7l3.63,3.98l1.33,0.69l1.5,0.2l0.44,-0.29l-0.24,-0.47l-1.99,-0.81l-4.4,-4.83l-1.43,-0.63l-1.94,-0.18l-1.77,-1.03l-0.25,-5.57l-0.75,-0.72l-1.14,-0.35l-1.62,0.32l-0.16,-0.68l0.18,-0.5l2.27,-0.51l1.72,-0.78l0.31,-1.67l-3.74,-4.94l-0.12,-1.54l2.65,0.11l3.74,0.96l1.1,0.72l1.31,0.02l3.51,-0.89l1.75,0.87l1.88,0.47l1.57,1.79l0.07,1.44l-2.01,1.88l-0.12,0.46l0.4,0.25l3.46,-0.28l0.85,1.3l0.43,0.15l1.87,-0.51l4.9,2.22l3.72,-1.12l0.53,1.41l-0.65,1.61l-2.59,1.91l-0.12,0.5l0.59,1.22l1.1,0.48l2.61,-0.23l4.21,1.16l0.93,-0.43l3.21,-2.73l1.19,-0.54l4.49,-0.58l0.73,-1.01l1.74,-1.1l3.62,-3.29l5.8,1.01l1.62,2.36l4.08,2.65l3.73,-0.15l1.18,2.22l0.71,3.25l2.21,1.63l3.05,0.68l0.48,2.97l1.56,5.02l-0.04,1.42l-0.54,1.61l-0.94,1.33l-1.28,0.77l-0.85,1.0l-0.23,1.2l1.81,2.09l3.53,2.51l1.27,1.91l-0.81,3.15l0.34,0.97l1.43,1.19l0.26,2.35l0.57,0.56l-0.95,2.89l-1.01,1.59l0.34,1.21l1.36,1.97l-0.22,1.81l0.22,0.65l2.57,1.24l1.33,3.49l-1.29,4.18l-1.87,3.2l-1.46,-0.48l0.11,-0.81l-1.26,-1.82l-3.37,-0.82l-0.7,0.29l-0.4,0.92l1.31,1.41l-5.96,2.33l-2.6,0.78l-2.07,0.25l-1.5,1.77l-0.94,-0.31l-2.04,0.96l-0.67,1.03l-2.06,0.33l-0.98,1.46l-2.31,-0.41l-3.18,0.72l-1.4,0.85l-2.01,2.57l-1.77,-1.93l-0.72,-0.08l-0.44,0.32l-0.04,1.02l1.14,1.65l0.52,1.47l1.03,1.06l2.35,1.46l0.63,0.91l-1.61,2.81l1.52,1.82l2.46,3.98l1.87,1.57l1.49,0.06l2.95,2.95l2.61,1.64l0.92,1.52l0.79,0.46l1.3,-0.06l3.29,3.0l-0.16,2.44l-0.83,1.09l-0.5,0.23l-2.76,-0.87l-0.49,0.51l-0.66,2.87l-0.38,0.46l-6.37,2.67l-1.17,0.77l-0.83,1.02l-0.01,1.03l2.54,3.11l0.01,1.18l-0.74,1.46l0.24,0.51l1.68,0.35l0.18,0.48l-0.4,2.61l-2.26,-1.03l-0.43,-1.57l-1.34,-0.68l-2.77,0.52l-1.62,-0.86l-2.11,-0.53l-0.57,0.25l-0.13,1.46l-6.22,0.61l-4.4,1.66l-1.31,1.07l-1.45,0.0l-1.91,0.52l-0.6,-0.06l-1.66,-2.12l-5.79,-0.52l-0.56,0.34l-0.83,3.01l-0.69,0.81l-1.08,0.46l0.2,-0.9l-0.26,-0.48l-1.5,-0.34l-0.22,-1.01l-1.29,-1.05l-3.11,-1.25l-0.84,0.49l-7.44,-4.01l-0.69,0.18l-0.13,0.52l0.63,1.16l-3.25,0.23l-0.69,-0.77l-0.81,-0.23l-0.59,0.27l-1.41,-1.07l-0.93,-0.24l-2.0,0.82l-0.58,0.89l0.1,0.75l0.97,0.47l-0.22,0.19l-3.28,-0.22l-1.51,0.54l-2.18,0.2l-3.02,-0.1l-1.57,-0.55l-0.38,-0.91l0.11,-1.58l0.74,-2.31l0.21,-1.68l-0.31,-1.12l0.4,-1.44l1.21,-2.16l1.76,-6.1l4.05,-4.32l0.04,-1.82l-0.29,-0.36l-1.85,-0.66l-5.27,-0.89l-1.02,-0.38l-1.24,-1.21l-3.4,0.67l-2.1,-0.1l-0.44,-1.02l-1.73,-0.51l-1.82,0.86l-2.04,-2.62l-0.66,-1.44l-1.19,-0.93l-1.22,-0.27l0.41,-1.96l1.46,-1.99l0.04,-1.7l-3.27,-1.56l-1.51,-1.71l-0.36,-1.88l0.82,-2.22l2.46,-1.42l0.19,-0.42l-0.31,-2.35l-0.75,-0.87l-1.5,-0.57l0.7,-0.84l-0.06,-0.62l-3.08,-2.45l0.64,-2.95l-0.69,-0.92l-1.76,-0.94ZM538.5,364.74l4.43,2.81l-0.02,0.85l-1.71,0.2l-1.36,-0.24l-0.07,-2.1l-1.21,-1.13l-0.06,-0.38ZM536.24,359.59l0.19,1.05l-1.4,-0.89l-1.53,0.01l-1.16,1.66l-0.34,0.03l-2.16,-1.36l-0.36,-1.05l0.29,-2.61l0.72,-0.83l0.1,-0.88l1.09,-0.91l0.75,-0.03l0.89,1.43l2.04,0.8l0.23,0.34l-1.13,1.59l0.47,0.93l1.31,0.71ZM503.18,358.26l-1.43,0.03l-1.18,-0.81l0.48,-0.55l1.69,0.5l0.45,0.83ZM463.5,350.42l0.29,-1.31l0.49,0.91l0.99,0.04l-1.77,0.36ZM466.66,353.0l-0.22,0.19l-1.35,-0.23l0.93,-0.31l0.63,0.36Z"></path>
<path data-code="AT" d="M481.24,489.9l0.13,-0.58l-1.06,-2.68l1.05,-2.02l0.09,-1.67l1.32,-0.27l0.2,-0.84l3.5,1.6l0.51,1.42l1.54,0.43l-0.16,1.17l0.45,0.42l1.9,-0.64l0.89,-1.0l0.56,-1.07l0.32,-1.9l2.68,-0.0l2.56,0.45l1.56,1.96l1.23,0.23l3.45,-0.54l1.5,-1.13l4.2,-1.6l6.32,-0.62l0.56,-0.68l-0.02,-0.91l1.71,0.39l1.72,0.89l2.72,-0.54l0.93,0.41l0.03,1.0l0.54,0.69l2.21,1.18l0.81,-0.01l0.6,-0.84l0.29,-2.75l-0.54,-1.0l-1.45,-0.25l0.66,-1.25l-0.01,-1.43l-2.62,-3.34l0.61,-1.04l3.51,-1.91l3.25,-0.97l0.81,-0.58l0.62,-0.8l0.73,-2.89l2.33,0.93l1.08,-0.42l0.94,-0.96l0.25,-2.75l1.82,1.08l1.04,1.69l1.99,0.43l2.41,0.04l1.64,-0.85l2.7,0.45l0.45,-0.33l0.19,-1.16l1.34,-1.55l1.2,0.04l0.39,-0.27l0.74,-3.74l0.73,0.04l1.42,0.91l2.0,-0.47l5.16,1.96l1.7,-0.05l3.21,1.91l4.25,0.28l1.59,-1.06l5.12,1.61l0.79,1.59l-1.13,2.46l0.03,1.3l1.48,3.33l1.49,2.65l0.58,0.5l-0.55,0.63l-0.13,0.95l-0.66,1.21l0.38,2.0l-3.35,0.39l-2.64,-1.21l-0.78,0.17l-1.67,1.19l-0.17,0.52l0.4,0.53l2.63,0.76l0.36,0.9l-0.61,1.28l-2.51,1.02l0.22,2.14l-0.57,1.05l0.29,1.33l0.71,0.37l-0.38,1.52l-1.55,0.13l-1.08,0.52l-3.02,2.24l-0.95,1.05l-0.06,1.65l-2.43,-0.52l-1.83,0.22l-2.62,1.17l-3.01,-0.22l-4.42,0.64l-0.86,0.49l-1.18,1.41l-2.58,1.56l-9.66,-1.84l-4.61,-0.75l-4.38,-0.3l-9.29,-1.69l-1.1,-0.46l-3.08,-3.86l-0.22,-0.59l0.9,-1.44l-0.7,-0.65l-5.54,1.63l-3.29,-0.2l-4.01,0.41l-1.66,0.81l-1.47,2.36l-1.02,0.33l-2.05,-0.36l-1.13,-0.95l-2.83,-0.17l-0.56,-1.63l-1.1,-0.55l-3.07,2.23l-3.13,-1.32l-0.64,-1.3l-3.07,-0.87Z"></path>
<path data-code="CH" d="M474.98,480.14l0.93,1.21l2.74,1.45l1.43,0.09l0.68,0.53l-1.86,4.76l-0.08,1.49l0.52,0.93l1.74,0.08l2.81,0.78l0.54,1.22l3.54,1.51l1.02,-0.27l2.12,-1.93l0.51,0.2l0.41,1.32l-0.75,3.44l0.56,0.97l-0.02,0.65l-1.65,-0.23l-1.29,-0.99l-1.55,0.38l-0.6,1.17l-0.22,1.86l0.55,0.63l0.74,2.52l-0.69,0.02l-1.59,-2.16l-0.91,-0.09l-3.3,1.21l-1.21,-0.13l-0.52,-0.58l-0.68,-2.14l-0.42,-0.32l-1.84,-0.17l-0.8,0.69l-0.12,3.09l-3.34,4.57l-0.07,0.81l0.58,1.67l-0.72,0.36l-0.75,-1.36l-1.21,-1.09l0.49,-0.82l-0.08,-0.63l-2.59,-0.79l-2.33,-2.15l-0.24,-3.0l-0.6,-0.57l-0.93,0.09l-1.91,1.79l-1.9,1.26l-0.23,0.68l0.55,1.27l-1.71,2.33l-2.51,1.44l-3.3,-0.92l-3.01,1.12l-2.56,0.51l-0.83,-0.33l-1.26,-1.8l-2.35,-2.36l0.54,-1.67l-0.64,-1.73l0.1,-0.55l-0.58,-0.62l-2.44,-0.37l-2.11,0.11l-1.59,0.66l-1.5,1.42l0.49,1.3l-0.73,0.74l-1.4,0.72l-1.06,0.03l-0.01,-0.52l1.69,-1.25l0.38,-1.74l-0.82,-1.03l1.23,-2.71l3.31,-2.41l0.66,-3.3l2.81,-1.32l3.99,-4.25l0.72,-1.16l-0.34,-0.8l-0.94,-0.37l0.69,-0.76l1.01,-0.54l0.9,-0.01l0.97,0.98l2.09,-0.03l1.04,-0.38l1.17,-1.66l1.37,-0.65l1.08,0.36l3.11,0.1l2.31,-0.21l1.45,-0.53l3.48,0.18l1.83,-0.89l0.01,-0.53l-0.38,-0.39l-1.8,-0.11l0.3,-0.51l1.54,-0.64l2.09,1.29l1.19,-0.13l0.95,0.88l3.86,-0.25Z"></path>
<path data-code="CZ" d="M515.02,433.92l1.19,1.02l0.6,1.08l0.65,0.07l2.33,-2.94l1.17,-0.7l2.89,-0.65l2.52,0.38l1.09,-1.49l2.02,-0.32l0.92,-1.17l1.6,-0.76l0.75,0.3l0.81,-0.32l1.06,-1.52l1.96,-0.22l2.67,-0.8l6.38,-2.46l0.37,-0.51l-0.15,-0.48l-1.0,-0.66l-0.25,-0.73l2.98,0.56l0.95,1.48l0.08,1.06l1.76,0.8l0.83,-0.18l0.54,-0.62l2.25,-0.51l0.25,-0.32l0.04,-1.87l2.95,0.83l0.28,1.28l1.19,1.4l5.17,1.32l2.81,1.22l0.78,0.97l3.93,-0.66l0.9,0.52l0.57,0.52l-0.42,0.79l-1.8,1.04l-0.5,1.04l0.46,0.7l1.33,0.49l2.02,2.0l1.45,2.2l0.85,0.53l0.79,0.04l4.42,-2.78l-0.02,-0.68l-1.44,-2.28l3.1,0.77l3.73,2.23l1.99,-0.18l1.8,-0.62l-0.09,1.16l-1.49,0.59l-0.24,0.49l0.61,0.9l0.8,0.34l2.0,2.05l0.71,0.26l1.73,-0.47l0.64,-0.55l0.67,0.66l2.73,1.37l0.83,-0.21l2.07,0.44l0.44,0.29l0.4,2.02l2.9,2.63l0.27,1.24l-2.96,0.35l-2.55,1.84l-0.7,0.94l-2.65,1.33l-0.88,1.57l-0.32,1.96l-2.18,1.02l-2.09,1.93l-1.71,0.77l-1.83,0.23l-3.9,-0.57l-0.98,0.38l-1.15,1.21l-1.28,2.46l-0.71,-1.3l-2.27,-0.52l-2.33,-1.09l-1.21,-0.03l-1.45,1.01l-3.92,-0.26l-3.07,-1.87l-1.85,0.01l-5.24,-1.97l-1.92,0.46l-1.3,-0.85l-1.15,-0.1l-0.71,0.65l-0.56,3.35l-1.36,0.07l-1.6,1.82l-0.23,1.07l-2.5,-0.4l-0.95,0.24l-0.75,0.61l-2.23,-0.04l-1.69,-0.37l-0.86,-1.54l-2.34,-1.31l-3.63,-3.34l-1.58,-0.02l-1.91,-2.37l-2.02,-1.08l-3.04,-3.02l-1.53,-0.08l-1.63,-1.37l-2.41,-3.91l-1.35,-1.5l1.34,-1.87l0.16,-1.15l-0.82,-1.15l-2.46,-1.54l-0.83,-0.87l-1.55,-3.17Z"></path>
</g>
</svg>